<?xml version="1.0" encoding="utf-8"?>
<!-- Generator: Adobe Illustrator 18.0.0, SVG Export Plug-In . SVG Version: 6.00 Build 0)  -->
<!DOCTYPE svg PUBLIC "-//W3C//DTD SVG 1.1//EN" "http://www.w3.org/Graphics/SVG/1.1/DTD/svg11.dtd">
<svg version="1.1" id="Layer_1" xmlns="http://www.w3.org/2000/svg" xmlns:xlink="http://www.w3.org/1999/xlink" x="0px" y="0px"
	 viewBox="0 0 398 100" enable-background="new 0 0 398 100" xml:space="preserve">
<g>
	<polygon fill="#6898AD" points="177.8,92.1 187.9,6.5 195.2,6.5 199.6,1.7 184,1.7 172.1,97.4 	"/>
	<polygon fill="#6898AD" points="194.9,7.9 189.2,7.9 182.3,66.1 199.7,66.1 194.5,61.3 187.9,61.3 191.9,22.5 195.7,60.4 
		201.6,65.9 	"/>
	<polygon fill="#6898AD" points="206.1,92.6 201.4,98.3 211.7,98.3 200.8,2.6 196.3,7.5 203.2,67.5 203.3,67.5 203.2,67.5 	"/>
	<polygon fill="#6898AD" points="204.6,92.2 201.7,67.5 183.5,67.5 187.8,72.9 197.1,72.9 199.9,97.9 	"/>
	<polygon fill="#6898AD" points="172,98.3 172,98.3 172.1,98.3 	"/>
	<polygon fill="#6898AD" points="182.1,68.1 179.2,92.8 173.3,98.3 183.8,98.3 186.6,73.6 	"/>
</g>
<g>
	<g>
		<polygon fill="#6898AD" points="235.3,6.4 254.1,6.4 257.5,1.7 231.7,1.7 231.7,11.4 		"/>
		<path fill="#6898AD" d="M244.3,91.8l0-84H236l-3.4,4.8h5.8c0.3,0,0.5,0.2,0.5,0.5v84L244.3,91.8z"/>
		<path fill="#6898AD" d="M254.9,7.9h-9.1l0,84.6l-6,5.8h11.7V13.1c0-0.2,0.2-0.5,0.5-0.5h6.5V3L254.9,7.9z"/>
	</g>
	<g>
		<polygon fill="#6898AD" points="262.4,92.1 272.5,6.5 279.8,6.5 284.2,1.7 268.6,1.7 256.8,97.4 		"/>
		<polygon fill="#6898AD" points="279.5,7.9 273.8,7.9 267,66.1 284.3,66.1 279.1,61.3 272.5,61.3 276.5,22.5 280.3,60.4 
			286.2,65.9 		"/>
		<polygon fill="#6898AD" points="290.7,92.6 286,98.3 296.3,98.3 285.4,2.6 280.9,7.5 287.8,67.5 287.9,67.5 287.8,67.5 		"/>
		<polygon fill="#6898AD" points="289.2,92.2 286.4,67.5 268.1,67.5 272.4,72.9 281.7,72.9 284.5,97.9 		"/>
		<polygon fill="#6898AD" points="256.6,98.3 256.6,98.3 256.7,98.3 		"/>
		<polygon fill="#6898AD" points="266.7,68.1 263.8,92.8 257.9,98.3 268.4,98.3 271.2,73.6 		"/>
	</g>
	<g>
		<polygon fill="#6898AD" points="345.9,93.3 340.5,98.3 364.3,98.3 359.3,93.3 		"/>
		<polygon fill="#6898AD" points="353.2,87 347.8,91.8 359.9,91.8 365.4,97.3 365.4,87 		"/>
		<polygon fill="#6898AD" points="352.1,2.5 346.6,7.8 346.5,8.8 346.5,34.3 346.5,91 352.1,85.9 352.1,12.9 		"/>
		<polygon fill="#6898AD" points="345.1,92.1 345.1,7.3 351,1.7 339.1,1.7 339.1,97.6 		"/>
	</g>
	<g>
		<polygon fill="#6898AD" points="391.8,49.5 378.5,49.5 378.5,91.1 384.1,85.9 384.1,54.3 397.4,54.3 397.4,44.2 		"/>
		<polygon fill="#6898AD" points="391.2,48 396.4,43.1 385,43.1 380,48 		"/>
		<polygon fill="#6898AD" points="377.9,93.4 372.5,98.3 396.3,98.3 391.3,93.4 		"/>
		<polygon fill="#6898AD" points="385.2,87 379.8,91.9 391.9,91.9 397.4,97.4 397.4,87 		"/>
		<polygon fill="#6898AD" points="378.5,8.8 378.5,47.3 384.1,41.9 384.1,12.9 397.4,12.9 397.4,2.8 390.1,8.8 		"/>
		<polygon fill="#6898AD" points="377,92.2 377,7.3 389.5,7.3 396.4,1.7 371.1,1.7 371.1,97.6 		"/>
	</g>
	<g>
		<path fill="#6898AD" d="M308.6,8.2V40h7.6c2.9,0,5.2-0.7,6.8-2l-3.8-3.3c-0.5,0.4-1.2,0.6-1.8,0.6h-2.7c-0.3,0-0.5-0.2-0.5-0.5
			V13.1L308.6,8.2z"/>
		<path fill="#6898AD" d="M307.3,93V6h9c4.6,0,7.4,1.5,9.1,3.6l3.7-3.3c-2.9-3.1-7.1-5.1-11.7-5.1h-15.8v96.5L307.3,93z"/>
		<path fill="#6898AD" d="M326.6,26.9v-7.7c0-8.1-3.2-11.8-10.3-11.8h-6.5l5.4,4.7h2.2c1.8,0,3.2,1.4,3.2,3.2v1.2v15.6
			c0,0.6-0.2,1.1-0.4,1.6L324,37C325.8,34.9,326.6,31.6,326.6,26.9z"/>
		<path fill="#6898AD" d="M330,7.4l-3.8,3.4c1.5,2.5,1.8,5.7,1.8,8.4v7.7c0,6.7-1.3,14.4-11.7,14.5h-7.6v4.7h8.8c8.8,0,16-7.2,16-16
			V16.5C333.2,13.1,332,9.9,330,7.4z"/>
		<path fill="#6898AD" d="M330,47.4l-3.8,3.4c1.5,2.5,1.8,5.7,1.8,8.4v20.3c0,6.7-1.3,14.4-11.7,14.5h-8.1l-5.5,4.7h14.7
			c8.8,0,16-7.2,16-16V56.6C333.2,53.1,332,50,330,47.4z"/>
		<path fill="#6898AD" d="M317.4,41.4h-3.7l1.4,2.5l1.1,2.2c4.6,0,7.4,1.5,9.1,3.6l3.7-3.3C326.2,43.3,322,41.4,317.4,41.4z"/>
		<path fill="#6898AD" d="M308.6,48.3v44.3h7.6c2.9,0,5.2-0.7,6.8-2l-3.8-3.3c-0.5,0.4-1.2,0.6-1.8,0.6h-2.7c-0.3,0-0.5-0.2-0.5-0.5
			V53.2L308.6,48.3z"/>
		<path fill="#6898AD" d="M326.6,79.5V59.3c0-8.1-3.2-11.8-10.3-11.8h-6.5l5.4,4.7h2.2c1.8,0,3.2,1.4,3.2,3.2v1.2v28
			c0,0.6-0.2,1.1-0.4,1.6l3.8,3.3C325.8,87.5,326.6,84.2,326.6,79.5z"/>
	</g>
</g>
<g>
	<g>
		<path fill="#6898AD" d="M64.5,51.5v33.4c0,5.6-4.6,10.2-10.2,10.2c-5.6,0-10.2-4.6-10.2-10.2V15.1c0-5.6,4.6-10.2,10.2-10.2
			c5.6,0,10.2,4.6,10.2,10.2v32.4l5.7-4.5V16c0-8.8-7.2-16-16-16c-8.8,0-16,7.2-16,16V84c0,8.8,7.2,16,16,16c8.8,0,16-7.2,16-16V45
			l-5.7,4.4V51.5z"/>
		<path fill="#6898AD" d="M63.1,41.9V15.1c0-4.9-4-8.9-8.9-8.9s-8.9,4-8.9,8.9v69.8c0,4.9,4,8.9,8.9,8.9s8.9-4,8.9-8.9v-26l-5.7-4.6
			V86c0,1.8-1.4,3.2-3.2,3.2c-1.8,0-3.2-1.4-3.2-3.2V14.1c0-1.8,1.4-3.2,3.2-3.2c1.8,0,3.2,1.4,3.2,3.2v38.6l5.7,4.5V41.9z"/>
	</g>
	<g>
		<path fill="#6898AD" d="M102.8,51.5v33.4c0,5.6-4.6,10.2-10.2,10.2c-5.6,0-10.2-4.6-10.2-10.2V15.1c0-5.6,4.6-10.2,10.2-10.2
			c5.6,0,10.2,4.6,10.2,10.2v32.4l5.7-4.5V16c0-8.8-7.2-16-16-16c-8.8,0-16,7.2-16,16V84c0,8.8,7.2,16,16,16c8.8,0,16-7.2,16-16V45
			l-5.7,4.4V51.5z"/>
		<path fill="#6898AD" d="M101.5,41.9V15.1c0-4.9-4-8.9-8.9-8.9c-4.9,0-8.9,4-8.9,8.9v69.8c0,4.9,4,8.9,8.9,8.9c4.9,0,8.9-4,8.9-8.9
			v-26l-5.7-4.6V86c0,1.8-1.4,3.2-3.2,3.2c-1.8,0-3.2-1.4-3.2-3.2V14.1c0-1.8,1.4-3.2,3.2-3.2c1.8,0,3.2,1.4,3.2,3.2v38.6l5.7,4.5
			V41.9z"/>
	</g>
	<g>
		<path fill="#6898AD" d="M7.1,8.2V40h7.6c2.9,0,5.2-0.7,6.8-2l-3.8-3.3c-0.5,0.4-1.2,0.6-1.8,0.6h-2.7c-0.3,0-0.5-0.2-0.5-0.5V13.1
			L7.1,8.2z"/>
		<path fill="#6898AD" d="M5.7,93V6h9c4.6,0,7.4,1.5,9.1,3.6l3.7-3.3c-2.9-3.1-7.1-5.1-11.7-5.1H0v96.5L5.7,93z"/>
		<path fill="#6898AD" d="M25,26.9v-7.7C25,11,21.8,7.4,14.7,7.4H8.2l5.4,4.7h2.2c1.8,0,3.2,1.4,3.2,3.2v1.2v15.6
			c0,0.6-0.2,1.1-0.4,1.6l3.8,3.3C24.2,34.9,25,31.6,25,26.9z"/>
		<path fill="#6898AD" d="M28.4,7.4l-3.8,3.4c1.5,2.5,1.8,5.7,1.8,8.4v7.7c0,6.7-1.3,14.4-11.7,14.5H7.1v4.7h8.8c8.8,0,16-7.2,16-16
			V16.5C31.6,13.1,30.4,9.9,28.4,7.4z"/>
		<path fill="#6898AD" d="M28.4,47.4l-3.8,3.4c1.5,2.5,1.8,5.7,1.8,8.4v20.3c0,6.7-1.3,14.4-11.7,14.5H6.6l-5.5,4.7h14.7
			c8.8,0,16-7.2,16-16V56.6C31.6,53.1,30.4,50,28.4,47.4z"/>
		<path fill="#6898AD" d="M15.8,41.4h-3.7l1.4,2.5l1.1,2.2c4.6,0,7.4,1.5,9.1,3.6l3.7-3.3C24.6,43.3,20.4,41.4,15.8,41.4z"/>
		<path fill="#6898AD" d="M7.1,48.3v44.3h7.6c2.9,0,5.2-0.7,6.8-2l-3.8-3.3c-0.5,0.4-1.2,0.6-1.8,0.6h-2.7c-0.3,0-0.5-0.2-0.5-0.5
			V53.2L7.1,48.3z"/>
		<path fill="#6898AD" d="M25,79.5V59.3c0-8.1-3.2-11.8-10.3-11.8H8.2l5.4,4.7h2.2c1.8,0,3.2,1.4,3.2,3.2v1.2v28
			c0,0.6-0.2,1.1-0.4,1.6l3.8,3.3C24.2,87.5,25,84.2,25,79.5z"/>
	</g>
	<g>
		<polygon fill="#6898AD" points="148.7,2.8 142.2,7.6 129.1,46 143.6,93.4 138.8,98.3 150.1,98.3 135.1,45.9 134.7,45.4 		"/>
		<polygon fill="#6898AD" points="119.5,92.6 119.5,6.8 125.2,1.7 114,1.7 114,97.5 		"/>
		<polygon fill="#6898AD" points="136.9,1.7 122.9,45.2 127.9,45.2 140.9,6.6 147.8,1.7 		"/>
		<polygon fill="#6898AD" points="126.3,29.8 126.3,2.7 120.9,7.4 120.9,45.2 121.4,45.2 		"/>
		<g>
			<polygon fill="#6898AD" points="121.6,46.7 120.9,46.7 120.9,93.2 115.3,98.3 126.3,98.3 126.3,63.4 			"/>
			<polygon fill="#6898AD" points="127.8,46.7 123.1,46.7 126.3,58 126.3,57.9 137.5,97.5 141.9,93 			"/>
		</g>
	</g>
</g>
</svg>
