<?xml version="1.0" encoding="utf-8"?>
<!-- Generator: Adobe Illustrator 16.0.0, SVG Export Plug-In . SVG Version: 6.00 Build 0)  -->
<!DOCTYPE svg PUBLIC "-//W3C//DTD SVG 1.1//EN" "http://www.w3.org/Graphics/SVG/1.1/DTD/svg11.dtd">
<svg version="1.1" id="Layer_1" xmlns="http://www.w3.org/2000/svg" xmlns:xlink="http://www.w3.org/1999/xlink" x="0px" y="0px"
	 width="839.059px" height="595.281px" viewBox="0 0 839.059 595.281" enable-background="new 0 0 839.059 595.281"
	 xml:space="preserve">
<polygon fill="#F37521" points="771.858,181.104 67.203,181.104 0,297.64 67.203,414.175 771.858,414.175 839.059,297.64 "/>
<g>
	<polygon fill="#FFFBE6" points="192.285,257.241 164.316,257.241 164.316,235.876 153.439,235.876 153.439,292.202 
		164.316,292.202 164.316,268.118 192.285,268.118 192.285,292.202 203.161,292.202 203.161,235.876 192.285,235.876 	"/>
	<path fill="#FFFBE6" d="M260.264,235.876h-10.488l-25.638,56.326h11.654l7.769-17.48h21.753l7.769,17.48h12.042l-24.861-55.549
		V235.876z M261.041,263.845h-12.042l6.215-13.208L261.041,263.845z"/>
	<polygon fill="#FFFBE6" points="346.112,273.556 316.59,235.876 306.49,235.876 306.49,292.202 317.367,292.202 317.367,254.522 
		346.889,292.202 356.989,292.202 356.989,235.876 346.112,235.876 	"/>
	<path fill="#FFFBE6" d="M412.538,235.876h-26.026v56.326h26.026c15.926,0,27.58-12.43,27.58-28.357
		C440.118,250.249,431.573,235.876,412.538,235.876z M412.538,281.325h-15.15v-34.961h15.15c10.1,0,17.092,6.992,17.092,17.092
		C429.241,270.448,424.967,281.325,412.538,281.325z"/>
	<g>
		<path fill="#FFFBE6" d="M467.698,247.918L467.698,247.918v27.58h-5.826v-39.233h5.826l13.596,24.473l13.596-24.473h5.828v39.622
			h-5.828v-27.58l0,0l-13.207,24.473L467.698,247.918z"/>
		<path fill="#FFFBE6" d="M560.926,275.498h-6.604l-5.826-13.207h-17.869l-5.826,13.207h-6.217l17.869-39.622h6.217L560.926,275.498
			z M539.95,243.257l-6.215,13.596h12.432L539.95,243.257z"/>
		<path fill="#FFFBE6" d="M596.665,236.265c13.984,0,19.422,10.488,19.422,19.422c0,11.265-8.156,19.811-19.422,19.811h-18.258
			v-39.233H596.665z M584.235,241.703v28.357h12.43c9.711,0,13.596-8.158,13.596-14.373c0-8.546-5.826-13.984-13.596-13.984H584.235
			z"/>
		<path fill="#FFFBE6" d="M669.305,236.265v5.827h-26.803v10.488h13.596v5.827h-13.596v12.042h27.58v5.827h-33.406v-40.011H669.305z
			"/>
	</g>
	<polygon fill="#FFFBE6" points="461.872,291.813 558.985,291.813 670.083,291.813 670.083,287.541 558.985,287.541 
		461.872,287.541 	"/>
	<g>
		<polygon fill="#FFFBE6" points="187.623,337.263 187.234,337.263 179.854,310.07 174.804,310.07 167.035,337.263 167.035,337.263 
			158.877,310.07 153.439,310.07 164.316,346.585 170.143,346.585 177.135,320.947 177.135,320.947 184.904,346.585 
			190.342,346.585 201.219,310.07 195.392,310.07 		"/>
		<polygon fill="#FFFBE6" points="220.642,346.585 226.08,346.585 226.08,327.162 226.08,310.07 220.642,310.07 220.642,327.162 		
			"/>
		<polygon fill="#FFFBE6" points="245.891,315.121 258.71,315.121 258.71,346.585 264.148,346.585 264.148,315.121 276.967,315.121 
			276.967,310.07 245.891,310.07 		"/>
		<polygon fill="#FFFBE6" points="323.193,324.832 301.828,324.832 301.828,310.07 296.39,310.07 296.39,346.585 301.828,346.585 
			301.828,330.271 323.193,330.271 323.193,346.585 328.632,346.585 328.632,310.07 323.193,310.07 		"/>
		<polygon fill="#FFFBE6" points="153.439,361.736 328.632,361.736 328.632,357.851 153.439,357.851 		"/>
	</g>
	<polygon fill="#FFFBE6" points="387.288,329.882 360.874,329.882 360.874,310.07 351.162,310.07 351.162,362.123 360.874,362.123 
		360.874,339.982 387.288,339.982 387.288,362.123 397,362.123 397,310.07 387.288,310.07 	"/>
	<polygon fill="#FFFBE6" points="435.069,339.982 451.772,339.982 451.772,330.271 435.069,330.271 435.069,319.783 
		468.086,319.783 468.086,310.07 424.967,310.07 424.967,362.123 469.641,362.123 469.641,352.412 435.069,352.412 	"/>
	<path fill="#FFFBE6" d="M518.198,310.07h-9.713l-23.695,52.053h10.877l7.381-16.314h20.199l6.992,16.314h11.266l-22.92-51.275
		L518.198,310.07z M518.973,336.097h-11.264l5.438-12.43L518.973,336.097z"/>
	<path fill="#FFFBE6" d="M608.319,325.609c0-11.266-8.936-15.539-16.705-15.539h-30.688v52.053h10.1v-20.588h15.928l9.711,20.588
		h11.266l-10.488-21.363C602.102,339.982,608.319,335.708,608.319,325.609z M570.637,319.783h20.59c6.992,0,6.992,4.271,6.992,5.438
		c0,5.051-3.885,6.215-6.992,6.215h-20.59V319.783z"/>
	<polygon fill="#FFFBE6" points="625.799,310.07 625.799,319.783 642.891,319.783 642.891,362.123 652.991,362.123 652.991,319.783 
		670.083,319.783 670.083,310.07 	"/>
</g>
</svg>
